<svg xmlns="http://www.w3.org/2000/svg" version="1.1" xmlns:xlink="http://www.w3.org/1999/xlink" xmlns:svgjs="http://svgjs.dev/svgjs" viewBox="0 0 1422 800"><defs><linearGradient x1="50%" y1="0%" x2="50%" y2="100%" id="ssscribble-grad"><stop stop-color="hsl(206, 75%, 49%)" stop-opacity="1" offset="0%"></stop><stop stop-color="hsl(331, 90%, 56%)" stop-opacity="1" offset="100%"></stop></linearGradient></defs><g fill="none" stroke-width="1.5" stroke="url(#ssscribble-grad)" stroke-linecap="round"><path d="M1225.01 608.69C1332.93 641.55 1396.51 678.49 1401.95 716.7 1352.44 752.18 1259.17 783.6 1146.16 805.09 1033.86 816.81 943.48 811.18 885.85 784.53 864.38 747.3 874.1 693.92 903.76 633.57 950.59 587.75 996.87 561.28 1033.58 569.79 1066.02 621.97 1081.94 714.58 1082.12 834.9 1075.31 956.12 1056.89 1051.93 1030.87 1093.27 1002.5 1069.18 970.85 981.57 937.99 854.98 905.13 735.16 872.61 658.55 839.01 644.06 803.06 693.65 761.7 784 711.56 884.04 654.43 972.98 584.4 1021.33 501.31 1021.42 413.95 977.48 320.5 897.88 230.59 800.5 157.86 694.12 109.18 595.98 96.43 514.04 119.86 445.69 180.76 395.45 268.98 358.77 357.9 332.16 432.47 310.63 469.29 288.64 451.17 269.21 380.93 244.17 273.01 211.31 154.66 178.45 63.48 139.32 21.83 96.78 34.68 56.8 100.58 18.55 200.66 -11.78 315.6 -32.05 422.46 -35.93 505.13 -18.24 556.73 13.05 575.32 64.01 568.17 127.33 537.88 181.63 499.77 222.28 464.21 232.01 427.18 197.72 402.97 119.9 393.35 6.89 388.72 -117.24 397.14 -226.29 415.95 -288.57 436.85 -286.78 464.5 -216.84 497.36 -97.04 530.22 29.55 566.73 123.84 607.81 160.62 650.97 131.97 702.33 54.87 763.91 -42.25 830.48 -138.49 908.8 -201.64 996.48 -219.6 1082.69 -193.9 1167.98 -128.47 1241.34 -39.58 1291.56 63.83 1311.93 164.39 1294.54 252.27 1246.09 329.56 1168.7 389.3 1077.85 434.54 1001.86 469.99 954.66 498.35 954.49 524.84 1008.82 548.61 1106.66 575.83 1225.01 608.69Q1225.01 608.69 1225.01 608.69" opacity="0.35"></path><path d="M1191.01 622.8C1292.25 653.32 1356.25 680.43 1370.88 702.31 1337.52 721.93 1262.23 732.24 1163 729.91 1055.75 721.52 959.05 697.77 884.96 659.4 829.11 597.76 864.75 520.77 912.26 564.07 946.59 638.13 970.79 740.38 982.57 855.9 989.34 998.49 946.02 982.37 903.72 820.98 873.21 708.61 837.2 631.63 795.31 606.82 751.87 638.43 699.9 710.72 638.48 800.32 573.82 891.38 499.37 956.49 418.01 984.4 339.65 975.74 263.48 930.34 198.9 860.03 154.9 771.75 136.99 679.51 151.94 593.25 194.25 511.15 263.59 442.36 348.47 386.79 425.33 338.33 483.26 298.92 504.84 265.13 478.44 233.71 408.25 203.5 307.01 172.99 196.75 142.48 108.56 113.11 61.27 86.97 59.82 63.22 106.4 47.11 187.99 42.7 290.31 45.38 394.95 63.91 486.49 98.99 557.85 138.22 602.47 186.65 622.54 234.94 619.51 265.26 602.61 274.5 580.59 251.38 550.96 191.71 526.84 99.24 512.4 -14.17 497.88 -170.97 527.79 -210.79 568.7 -63.04 599.22 55.19 638 147.71 684.8 192.82 732.64 181.59 790.04 124.27 856.49 41.4 923.81 -51.75 998.18 -126.64 1074.84 -168.93 1143.89 -177.25 1204.6 -147.49 1247.62 -89.33 1267.54 -9.63 1259.11 78.8 1219.52 165.15 1159.75 250.55 1082.48 324.56 1002.52 385.82 943.3 441.03 914.09 486.23 927.31 524.16 986.37 559.82 1080.75 592.29 1191.01 622.8Q1191.01 622.8 1191.01 622.8" opacity="0.91"></path><path d="M1157.01 559.96C1283.1 597.74 1289.65 624.32 1177.79 608.23 1080.73 591.92 984.88 565.05 902.03 531.33 837.06 503.97 794.98 480.17 773.84 468.9 772.57 480.46 783.76 516.58 800.27 580.65 824.51 667.31 845.14 770.13 858.14 874.28 873.09 987.57 850.13 938.67 812.93 786.98 784.77 682.29 747.82 606.08 702.76 572.84 657.13 587.97 602.66 641.6 540.52 716.98 478.7 803 411.69 875.93 344.04 923.37 284.12 944.31 232.48 932.37 196.84 893.7 181.06 833.69 189.74 761.08 225.39 685.37 278.91 605.89 349.5 532.82 425.91 469.38 488.43 408.85 529.79 357.96 537.62 315.94 504.55 275.42 435.37 241.24 341.01 213.07 238.95 184.9 154.54 164.09 103.36 151.48 89.75 140.39 118.28 140.04 180.59 151.75 266.52 166.39 362.39 193.07 454.63 229.14 536.92 261.43 600.44 293.61 643.64 316.7 667.39 318.46 675.21 297 673.25 246.75 660.68 169.97 647.3 71.79 638.08 -34.86 624.8 -165.72 645.05 -168.96 681.78 -29.04 709.94 80.67 747.83 170.35 794.27 221.76 840.7 225.94 895.29 188.17 955.7 122.42 1013.74 38.92 1073.51 -38.63 1129.48 -95.97 1174.86 -130.71 1207.48 -133.44 1220.64 -108.08 1214.35 -59.9 1184.24 4.33 1131.27 75.09 1068.36 152.23 997.75 225.49 932.46 290.61 890.8 354.11 878.3 408.15 902.78 452.7 964.83 496.03 1054.95 531.79 1157.01 559.96Q1157.01 559.96 1157.01 559.96" opacity="0.19"></path><path d="M1123.01 441.86C1241.31 475.14 1274.49 488.92 1188.47 471.98 1105.47 459.88 1016.76 443.09 932.85 426.44 857.94 419.9 799.03 422.48 757.21 440.55 731.53 478.2 719.56 536.5 716.49 614.61 722.95 704.25 731.09 799.57 736.63 887.39 744.95 953.49 746.77 987.57 740.11 980.3 733.75 934.61 718.07 854.01 692.25 752.98 666.43 656.17 631.7 581.85 589.36 542.13 547.33 542.71 498.54 578.04 445.47 636.79 395.19 711.93 344.53 784.24 298.27 841.95 249.01 891.74 250.42 840.72 312.59 763.77 369.63 700.77 435.17 637.34 499.25 578.3 546.21 518.36 571.78 465.74 567.64 421.93 529.55 378.53 462.29 343.53 375.01 317.71 281.24 291.89 201.38 276.47 147.98 271.18 124.51 266.3 136.87 271.95 180.19 287.14 247.48 301.44 329.48 322.35 415.11 345.55 499.29 360.19 572.82 368.15 631.91 362.48 677.28 336.96 707.95 290.39 727.21 221.7 735.92 137.11 739.48 41.66 742.27 -52.41 742.25 -155.1 769.29 -126.39 803.38 4.94 829.2 105.98 863.07 191.82 903.41 247.49 942.99 264.73 987.36 245.35 1033.43 198.18 1075.38 129.29 1114.34 57.12 1145.43 -5.62 1165.96 -56.86 1172.36 -84.55 1160.83 -88.36 1135.57 -72.59 1092.66 -38.1 1035.37 8.22 976.62 64.67 917.78 123.98 869.4 180.83 845.02 239.7 847.35 292.28 880.78 336.46 944.15 380.55 1029.24 416.04 1123.01 441.86Q1123.01 441.86 1123.01 441.86" opacity="0.37"></path><path d="M1088.61 309.19C1168.69 332.66 1228.48 346.98 1261.01 353.22 1266.18 360.19 1241.77 360.7 1193.4 357.3 1126.99 357.87 1050.42 359.07 972.31 365.22 895.94 381.67 828.61 409.25 773.24 451.32 728.77 507.08 696.51 577.43 674.09 658.98 660.46 742.82 651.89 824.3 644.89 892.72 641.71 938.52 636.1 954.83 625.74 936.23 616.21 887.37 600.21 811.09 576.74 718.87 553.27 630.15 523.43 558.76 488.7 514.56 454.79 502.87 417.7 521.14 380.21 562.27 346.53 622.41 316.44 686.95 293.9 745.88 280.14 798.41 278.7 833.36 292.4 849.21 317.02 849.93 356.52 833.63 408.45 804.98 462.12 766.48 517.63 722.38 566.83 677.47 598 629.25 609.05 584.38 594.82 545.54 553.24 506.22 488.69 474.12 408.61 450.65 323.21 427.18 248.64 413.45 194.76 408.5 163.97 403.07 162.66 405.24 188.39 412.78 236.46 417.02 301.36 422.46 374.67 424.78 452.57 417.26 526.93 399.86 593 368.37 651.57 321.76 698.82 258.99 735.53 182.02 763.94 98.64 785.17 13.06 802.22 -64.28 814.97 -122.62 827.56 -154.25 842.38 -151.62 856.13 -116.47 874.23 -49.84 897.7 38.87 921.18 131.09 948.91 212.13 979.42 270.05 1008.87 297.71 1038.98 294.75 1066.91 266.16 1090.53 214.95 1107.95 154.51 1115.73 95.12 1115.19 38 1101.64 -4.51 1073.83 -29.5 1038.53 -40.81 992 -34.69 938.53 -14.96 889.66 15.06 845.82 52.51 814.96 92.61 806.42 136.69 821.09 178.88 860.94 216.18 923.89 254.2 1003.21 285.72 1088.61 309.19Q1088.61 309.19 1088.61 309.19" opacity="0.48"></path><path d="M1055.05 208.07C1127.64 229.2 1184.16 245.4 1219.17 257.68 1232.85 271.01 1222.05 282.47 1190.09 294.37 1141.08 310.41 1079.81 330.72 1012.89 358.12 942.66 393.42 875.56 438.96 815.23 495.46 760.46 559.06 714.78 630.76 677.82 706.11 647.27 777.21 623.07 840.73 603.1 888.65 586.67 915.44 571.33 916.61 555.22 889.45 540.05 839.37 522.3 768.27 501.17 684.99 480.05 604.55 456.56 537.09 431.88 490.36 408.15 468.95 385.06 472.19 364.89 496.09 348.25 538.98 337.66 590.54 335.65 642.98 340.05 696.3 355.4 739.89 382.48 770.62 415.13 792.3 457.18 799.72 505.41 794.88 550.34 781.73 592.66 760.28 626.19 734.08 642.66 703.93 641.44 672.92 619.6 643.78 576.44 613.72 515.64 587.41 443.05 566.29 366.08 545.16 297.32 530.22 244.28 520.45 208.32 509.74 195.76 502.32 205.79 495.87 235.14 485.45 281.36 472.12 338.5 452.71 403.78 424.99 470.93 387.24 535.24 337.88 597.53 279.46 652.77 210.82 699.96 135.51 742.14 61.06 777.18 -9.43 806.4 -67.81 832.28 -107.19 855 -122.45 876.09 -109.2 896.2 -70.62 916.53 -7.44 937.66 72.99 958.78 156.27 979.7 231.65 999.43 289.89 1018.18 325.2 1033.89 336.05 1044.62 324.74 1052.01 292.3 1051.76 247.73 1042.15 198.62 1027.51 145.27 1002.6 98.62 968 62.71 931.38 33.9 889.28 18.68 845.99 15.94 810.85 21.1 783.57 35.58 769.7 56.15 775.14 80.86 799.72 107.82 843.83 134.34 905.01 161.9 978.04 186.94 1055.01 208.06Q1055.05 208.07 1055.05 208.07" opacity="0.29"></path><path d="M1021.04 173.12C1086.05 191.9 1138.61 210.61 1174.65 229.74 1194.72 249.77 1195.28 271.92 1178.12 297.53 1146.12 326.17 1101.66 360.63 1049.39 401.96 991 447.69 931.39 500.96 874.13 560.68 818.01 621.87 767.32 685.55 723.05 747.34 682.26 801.32 647.42 845.16 617.83 873.37 590.69 883.55 566.95 872.69 545.64 839.81 525.08 790.33 505.55 725.2 486.77 650.95 467.99 578.96 450.86 516.37 436 469.05 416.69 436.07 405.08 482.92 418.89 541.19 434.22 587.05 457.95 629.47 489.46 664.92 522.11 697.01 559.45 719.05 598.29 731.04 644.82 736.83 674.64 707.47 641.71 681.46 598.42 662.5 542.05 643.14 477.04 624.36 408.56 605.59 346.22 588.28 295.55 571.83 256.95 554.46 236.21 536.21 233.47 515.52 246.27 491.6 274.35 462.56 313.84 426.88 362.64 385.95 416.63 336.95 471.82 280.25 528.84 220.19 582.88 155.51 632.01 90.1 679.32 30.1 720.98 -22.38 756.89 -61.47 790.92 -83.5 820.36 -85.07 845.69 -63.89 870.37 -23.81 892.1 34.96 910.88 106.95 929.66 181.2 944.6 250.14 955.33 306.86 967.78 357.76 959.92 344.17 936.18 296.24 916 254 888.91 212.59 856.5 176.01 825.93 140.9 794.2 114.59 764.95 97.79 739.38 83.64 766.93 98.71 828.48 120.09 886.39 136.38 952.52 154.33 1021 173.11Q1021.04 173.12 1021.04 173.12" opacity="0.12"></path><path d="M987 216.54C1094.93 249.4 1154.16 297.54 1156.33 362.05 1111.65 432.37 1030.15 525.02 937.4 631.43 837.7 728.94 750.12 810.52 682.33 846.12 619.1 826.27 571.02 743.55 538.16 616.94 498.03 457.7 526.04 456.14 600.81 546.46 650.5 609.81 697.14 646.88 717.73 655.24 691.48 656.37 618.93 637.83 511 604.97 392.65 572.11 306.63 528.03 271.46 469.96 281.93 404.65 337.46 316.3 415.36 209.87 508.47 106.53 597.34 11.59 669.47 -43.84 739.68 -44.41 792.66 21.14 825.52 140.94 858.38 267.55 868.01 363.59 854.75 407.52 839.57 396.01 801.99 349.29 751.95 294.85 717.12 231.5 696.44 190.14 710.06 176.77 769.31 169.21 868.65 183.68 987 216.54Q987 216.54 987 216.54" opacity="0.94"></path><path d="M953.05 323.3C1047.39 351.46 1106.81 400.04 1124.28 465.02 1107.3 530.46 1057.59 609.94 992 691.11 914.38 757.01 839.26 801.82 777.11 806.71 715.33 772.11 668.37 692.69 640.2 582.99 612.03 478.3 605.33 400.53 618.3 361.78 631.63 363.88 662.8 393.36 703.5 431.81 732.18 481.94 752 519.16 748.35 535.3 710.22 549.6 639.39 542.92 545.05 514.76 442.98 486.59 363.25 439.6 319.47 376.48 306.82 311.54 330.74 230.36 377.79 143.31 441.47 67.95 509.52 8.59 569.23 -14.14 630.68 3.94 678.36 70.3 706.52 174.99 734.7 284.69 740.69 375.52 728.06 430.77 717.16 446.53 693.06 431.59 666.3 402.6 656.17 358.35 662.11 322.83 695.39 306.2 759.81 290.03 850.95 295.12 953.01 323.29Q953.05 323.3 953.05 323.3" opacity="0.14"></path><path d="M919.05 456.56C999.06 480.03 1055.12 520.52 1082 572.24 1086.03 621.55 1064.21 676.19 1026.32 725.06 976.47 759.1 922.94 772.62 875.23 755.56 825.63 713.44 786.49 641.2 763.02 548.99 739.55 460.27 733.97 387.88 742.89 340.96 758.37 322.21 791.49 375.62 768.72 398.9 724.64 411.92 659.06 408.39 579.05 384.92 493.64 361.45 423.1 320.26 376.7 266.56 349.25 214.39 348.67 154.18 368.29 96.47 401.54 52.03 443.57 25.13 484.61 27.68 528.72 57.39 565.39 120.27 588.86 208.99 612.34 301.2 620.4 382.95 616.96 442.27 613.9 482.23 632.58 457.53 689.97 439.89 753.56 428.85 833.61 433.08 919.01 456.55Q919.05 456.56 919.05 456.56" opacity="0.53"></path><path d="M885.01 570.27C950.04 589.05 999.53 616.58 1029.99 648.21 1046.69 690.68 993.45 727.08 948.86 693.73 916.87 650.94 889.38 589.23 870.6 514.98 851.82 442.98 843.53 379.79 842.98 331.69 840.37 290.37 819.78 279.42 779.37 282.32 735.14 285.33 678.04 279.06 613.01 260.28 544.53 241.5 485.59 211.99 441.97 176.44 404.67 94.91 476.45 143.19 507.04 242.98 525.82 317.23 537.98 386.55 545.9 443.1 556.52 486.02 567.87 514.33 584.16 530.76 609.21 536.64 645.05 538.58 692.59 542.33 749.98 543.24 816.53 551.5 885.01 570.27Q885.01 570.27 885.01 570.27" opacity="0.61"></path><path d="M851.05 625.2C945.39 653.36 996.65 680.03 1003.66 681.36 991.27 660.94 959.5 590.69 931.34 480.99 903.17 376.29 883.93 295.47 859.41 250.24 815.48 228.06 741.39 212.07 647.05 183.91 544.97 155.74 474.66 120.72 448.48 105.98 439.05 114.31 456.83 172.29 485 276.99 513.16 386.69 546.39 479.77 592.73 537.11 655.82 572.7 748.97 597.03 851.05 625.2Q851.05 625.2 851.05 625.2" opacity="0.44"></path><path d="M817.01 602.32C937.68 639.88 965.02 589.73 927.47 446.98 889.91 312.98 801.68 219.71 681.01 182.15 546.85 144.6 491.67 176.98 529.23 310.98 566.78 453.73 682.85 564.77 817.01 602.32Q817.01 602.32 817.01 602.32" opacity="0.33"></path></g></svg>